# xmcd
#
# Track frame offsets: 
#        150
#        15007
#        29725
#        48200
#        63860
#        78947
#        90095
#        103440
#        117195
#        131457
#
# Disc length: 1997 seconds
#
# Revision: 5
# Processed by: cddbd v1.5.2PL0 Copyright (c) Steve Scherf et al.
# Submitted via: ExactAudioCopyFreeDBPlugin 1.0
#
DISCID=6d07cb0a
DTITLE=Bellamy Brothers - Simply the Best... Bellamy Brothers - Let Yo
DTITLE=ur Love Flow, Greatest Hits
DYEAR=1994
DGENRE=Country
TTITLE0=Let Your Love Flow
TTITLE1=If I Said You Had A Beautiful Body Would You Hold It Against M
TTITLE1=e
TTITLE2=Old Hippie
TTITLE3=Kids Of The Baby Boom
TTITLE4=Dancin' Cowboys
TTITLE5=Bird Dog
TTITLE6=Slippin' Away
TTITLE7=Lovin' On
TTITLE8=Ole Faithful
TTITLE9=Satin Sheets
EXTD=
EXTT0=
EXTT1=
EXTT2=
EXTT3=
EXTT4=
EXTT5=
EXTT6=
EXTT7=
EXTT8=
EXTT9=
PLAYORDER=
